<svg width="24" height="24" viewBox="0 0 24 24" fill="none" xmlns="http://www.w3.org/2000/svg">
<g opacity="0.7">
<path fill-rule="evenodd" clip-rule="evenodd" d="M8.03239 6.23198C6.2001 7.49487 5 9.60809 5 12C5 15.866 8.13401 19 12 19C14.3918 19 16.5049 17.8001 17.7679 15.968C17.5146 15.9894 17.2585 16.0003 17 16.0003C12.0294 16.0003 8 11.9709 8 7.00031C8 6.74163 8.01094 6.48536 8.03239 6.23198ZM3 12C3 8.04185 5.55459 4.68291 9.10211 3.47705L10.3707 4.74573C10.1306 5.45189 10 6.20981 10 7.00031C10 10.8663 13.134 14.0003 17 14.0003C17.7904 14.0003 18.5482 13.8697 19.2542 13.6297L20.5228 14.8984C19.3168 18.4457 15.958 21 12 21C7.02944 21 3 16.9706 3 12Z" fill="#4B5EFC"/>
</g>
</svg>
