<svg width="32" height="32" viewBox="0 0 32 32" fill="none" xmlns="http://www.w3.org/2000/svg">
<path fill-rule="evenodd" clip-rule="evenodd" d="M10.5859 7H11.0002H27.0002H28.0002V8V24V25H27.0002H11.0002H10.5859L10.293 24.7071L2.29304 16.7071L1.58594 16L2.29304 15.2929L10.293 7.29289L10.5859 7ZM11.4144 9L4.41436 16L11.4144 23H26.0002V9H11.4144ZM15.0002 11.5858L15.7073 12.2929L18.0002 14.5858L20.293 12.2929L21.0002 11.5858L22.4144 13L21.7073 13.7071L19.4144 16L21.7073 18.2929L22.4144 19L21.0002 20.4142L20.293 19.7071L18.0002 17.4142L15.7073 19.7071L15.0002 20.4142L13.5859 19L14.293 18.2929L16.5859 16L14.293 13.7071L13.5859 13L15.0002 11.5858Z" fill="white"/>
</svg>
